<svg width="40" height="24" viewBox="0 0 40 24" fill="none" xmlns="http://www.w3.org/2000/svg">
<rect x="0.5" y="0.5" width="39" height="23" rx="11.5" fill="#33363A" fill-opacity="0.16" stroke="#33363A"/>
<path opacity="0.64" fill-rule="evenodd" clip-rule="evenodd" d="M18 18C17.4477 18 17 17.5523 17 17C17 15.8954 16.1046 15 15 15C14.4477 15 14 14.5523 14 14C14 13.4477 14.4477 13 15 13C16.1046 13 17 12.1046 17 11C17 10.4477 17.4477 10 18 10C18.5523 10 19 10.4477 19 11C19 12.1046 19.8954 13 21 13C21.5523 13 22 13.4477 22 14C22 14.5523 21.5523 15 21 15C19.8954 15 19 15.8954 19 17C19 17.5523 18.5523 18 18 18Z" fill="#9CA9B3"/>
<path opacity="0.64" fill-rule="evenodd" clip-rule="evenodd" d="M23.5 11C23.1548 11 22.875 10.7202 22.875 10.375C22.8739 9.6851 22.3149 9.1261 21.625 9.125C21.2798 9.125 21 8.84518 21 8.5C21 8.15482 21.2798 7.875 21.625 7.875C22.3149 7.8739 22.8739 7.3149 22.875 6.625C22.875 6.27982 23.1548 6 23.5 6C23.8452 6 24.125 6.27982 24.125 6.625C24.1261 7.3149 24.6851 7.8739 25.375 7.875C25.7202 7.875 26 8.15482 26 8.5C26 8.84518 25.7202 9.125 25.375 9.125C24.6851 9.1261 24.1261 9.6851 24.125 10.375C24.125 10.5408 24.0592 10.6997 23.9419 10.8169C23.8247 10.9342 23.6658 11 23.5 11Z" fill="#9CA9B3"/>
</svg>
