<svg width="344" height="90" viewBox="0 0 344 90" fill="none" xmlns="http://www.w3.org/2000/svg">
<path d="M276.585 4.37507C276.24 4.60408 276.146 5.06953 276.375 5.41468L280.107 11.0391C280.336 11.3842 280.802 11.4784 281.147 11.2493C281.492 11.0203 281.586 10.5549 281.357 10.2097L278.04 5.21026L283.039 1.89285C283.384 1.66383 283.478 1.19838 283.249 0.853236C283.02 0.508094 282.555 0.413959 282.21 0.642978L276.585 4.37507ZM336 89C336.683 89.3103 336.683 89.3097 336.683 89.3088C336.684 89.3081 336.684 89.307 336.685 89.3057C336.686 89.3031 336.688 89.2996 336.69 89.295C336.694 89.2859 336.7 89.2728 336.707 89.2558C336.722 89.2218 336.744 89.172 336.772 89.1069C336.828 88.9768 336.909 88.7855 337.01 88.5365C337.212 88.0385 337.495 87.3096 337.823 86.3775C338.478 84.5139 339.311 81.836 340.029 78.5673C341.465 72.0348 342.449 63.1138 340.611 53.6076C338.771 44.0888 334.104 33.9996 324.267 25.1609C314.438 16.3293 299.491 8.78353 277.149 4.26488L276.851 5.73512C299.009 10.2165 313.687 17.6707 323.264 26.2766C332.834 34.8754 337.354 44.6612 339.139 53.8924C340.926 63.1362 339.972 71.8402 338.564 78.2452C337.861 81.4453 337.046 84.0642 336.408 85.8803C336.089 86.7881 335.814 87.4947 335.62 87.9723C335.523 88.2111 335.447 88.3926 335.395 88.5133C335.369 88.5737 335.349 88.6189 335.336 88.6484C335.329 88.6632 335.324 88.674 335.321 88.6809C335.32 88.6843 335.319 88.6868 335.318 88.6883C335.318 88.689 335.317 88.6893 335.317 88.6897C335.317 88.6898 335.317 88.6897 336 89Z" fill="#5D5DFF"/>
<path d="M33.3828 23.5181C33.4702 23.1132 33.2128 22.7141 32.8079 22.6267L26.2099 21.2025C25.805 21.1151 25.4059 21.3725 25.3185 21.7773C25.2311 22.1822 25.4885 22.5813 25.8934 22.6687L31.7583 23.9347L30.4923 29.7996C30.4049 30.2045 30.6623 30.6036 31.0671 30.691C31.472 30.7784 31.8711 30.521 31.9585 30.1161L33.3828 23.5181ZM10.3504 67.6401C11.0977 67.5764 11.0977 67.5766 11.0977 67.5768C11.0977 67.5766 11.0977 67.5767 11.0977 67.5764C11.0977 67.576 11.0976 67.5752 11.0975 67.5739C11.0973 67.5714 11.0969 67.5671 11.0965 67.5612C11.0956 67.5493 11.0941 67.5307 11.0924 67.5056C11.0888 67.4552 11.0838 67.3785 11.0782 67.2767C11.0669 67.073 11.0534 66.7691 11.0446 66.3747C11.0272 65.5859 11.0291 64.4359 11.1078 63.0041C11.2651 60.1393 11.729 56.1528 12.9547 51.6757C15.4052 42.7249 20.8928 31.8346 33.0561 23.9902L32.2432 22.7296C19.69 30.8254 14.0279 42.0753 11.5079 51.2796C10.2485 55.88 9.77186 59.9748 9.61003 62.9218C9.52908 64.3959 9.5268 65.5846 9.545 66.4079C9.5541 66.8195 9.56834 67.14 9.58044 67.3593C9.58649 67.469 9.59201 67.5533 9.59609 67.6112C9.59813 67.6401 9.59982 67.6624 9.60102 67.6779C9.60163 67.6856 9.60212 67.6917 9.60247 67.696C9.60265 67.6982 9.60279 67.6999 9.6029 67.7013C9.60296 67.7019 9.60301 67.7026 9.60304 67.7029C9.60309 67.7034 9.60313 67.7039 10.3504 67.6401Z" fill="#5D5DFF"/>
</svg>
