<svg width="528" height="279" viewBox="0 0 528 279" fill="none" xmlns="http://www.w3.org/2000/svg">
<rect width="528" height="279" fill="#25282C"/>
<mask id="mask0_0_340" style="mask-type:luminance" maskUnits="userSpaceOnUse" x="0" y="0" width="528" height="279">
<rect width="528" height="279" fill="white"/>
</mask>
<g mask="url(#mask0_0_340)">
<path fill-rule="evenodd" clip-rule="evenodd" d="M16.5 20C16.2239 20 16 20.2239 16 20.5C16 20.7761 16.2239 21 16.5 21H523.5C523.776 21 524 20.7761 524 20.5C524 20.2239 523.776 20 523.5 20H16.5ZM16 53.5C16 53.2239 16.2239 53 16.5 53H523.5C523.776 53 524 53.2239 524 53.5C524 53.7761 523.776 54 523.5 54H16.5C16.2239 54 16 53.7761 16 53.5ZM16.5 86C16.2239 86 16 86.2239 16 86.5C16 86.7761 16.2239 87 16.5 87H523.5C523.776 87 524 86.7761 524 86.5C524 86.2239 523.776 86 523.5 86H16.5ZM16.5 119C16.2239 119 16 119.224 16 119.5C16 119.776 16.2239 120 16.5 120H523.5C523.776 120 524 119.776 524 119.5C524 119.224 523.776 119 523.5 119H16.5ZM16.5 152C16.2239 152 16 152.224 16 152.5C16 152.776 16.2239 153 16.5 153H523.5C523.776 153 524 152.776 524 152.5C524 152.224 523.776 152 523.5 152H16.5ZM16 185.5C16 185.224 16.2239 185 16.5 185H523.5C523.776 185 524 185.224 524 185.5C524 185.776 523.776 186 523.5 186H16.5C16.2239 186 16 185.776 16 185.5ZM16.5 218C16.2239 218 16 218.224 16 218.5C16 218.776 16.2239 219 16.5 219H523.5C523.776 219 524 218.776 524 218.5C524 218.224 523.776 218 523.5 218H16.5ZM16 251.5C16 251.224 16.2239 251 16.5 251H523.5C523.776 251 524 251.224 524 251.5C524 251.776 523.776 252 523.5 252H16.5C16.2239 252 16 251.776 16 251.5Z" fill="#717D86" fill-opacity="0.12"/>
<path opacity="0.8" d="M52 45H33V109H119" stroke="#55595F" stroke-width="2"/>
<path opacity="0.8" d="M208 173H189V236H275" stroke="#55595F" stroke-width="2"/>
<path opacity="0.8" d="M449 109H468V173H407" stroke="#55595F" stroke-width="2"/>
<path opacity="0.8" d="M268 109H302" stroke="#55595F" stroke-width="2"/>
</g>
</svg>
