<svg width="1440" height="80" viewBox="0 0 1440 80" fill="none" xmlns="http://www.w3.org/2000/svg">
<circle cx="184" cy="40" r="16" fill="#D8D8D8" fill-opacity="0.01"/>
<mask id="mask0_0_888" style="mask-type:luminance" maskUnits="userSpaceOnUse" x="168" y="24" width="32" height="32">
<circle cx="184" cy="40" r="16" fill="white"/>
</mask>
<g mask="url(#mask0_0_888)">
<path fill-rule="evenodd" clip-rule="evenodd" d="M290.573 80.5956C295.177 80.5916 299.78 80.5876 304.384 80.5876V74.4006H288.469C285.06 74.4006 281.593 74.5162 278.106 74.6325C270.179 74.8969 262.148 75.1648 254.463 74.0856C245.086 72.7686 236.157 67.4546 228.326 61.7766C219.466 55.3524 211.706 47.423 203.941 39.4881L203.941 39.4878L203.941 39.4876C198.391 33.8162 192.838 28.1419 186.879 23.0126C183.311 19.9376 179.636 16.9706 175.75 14.4236L175.503 14.2615C171.474 11.6159 164.528 7.05441 161.097 12.6876C158.426 17.0727 158.47 23.5411 158.508 29.2209C158.518 30.6778 158.528 32.0829 158.491 33.3876C158.081 47.9106 156.756 68.6216 141.776 73.2436C138.749 74.0966 135.669 74.3876 132.554 74.3996C120.236 74.4356 107.918 74.4196 95.6 74.4006C94.218 74.3966 92.836 74.3566 91.457 74.2406C90.03 74.1206 88.61 73.9116 87.204 73.6136C78.8549 71.8453 71.2222 67.2355 63.6054 62.6353C52.7901 56.1034 42.0068 49.5908 29.25 51.2596C20.6303 52.3873 13.5734 57.4869 6.51145 62.5902C-0.434761 67.6098 -7.38591 72.633 -15.834 73.8836C-19.028 74.2976 -22.23 74.3976 -25.442 74.4016H-51V80.5896C-48.0605 80.5896 -45.121 80.5934 -42.1813 80.5972H-42.1811H-42.1809C-36.2171 80.6049 -30.2531 80.6127 -24.289 80.5886C-17.941 80.5626 -11.657 80.1566 -5.853 76.9656C-1.722 74.6945 1.927 71.4646 5.51 68.2626L5.82472 67.9812C12.4385 62.0685 19.2732 55.9583 27.794 54.1796C41.544 51.309 52.967 59.1383 64.4389 67.0012C73.6881 73.3406 82.9691 79.7018 93.527 80.4946C94.903 80.5726 96.279 80.5886 97.656 80.5886C101.884 80.5886 106.116 80.6216 110.349 80.6546H110.35H110.351H110.351H110.351C119.335 80.7248 128.324 80.7949 137.295 80.5496C142.31 80.3496 147.362 79.3716 151.356 75.7046C155.931 71.5046 158.102 64.9256 159.488 58.6556C160.847 52.5041 161.063 46.2489 161.279 40.0003C161.47 34.4342 161.662 28.8733 162.662 23.3956C164.528 13.0906 171.926 15.5966 178.196 19.6686C184.473 23.7456 190.155 28.9826 195.593 34.3436C198.305 37.0156 200.951 39.7726 203.582 42.5456C214.803 54.3716 226.362 65.9376 240.176 73.8276C247.067 77.7596 254.069 80.5546 261.86 80.5846C271.431 80.6122 281.002 80.6039 290.573 80.5956ZM269.61 97.7126H304.385H304.386V91.1826H267.098C259.032 91.1816 252.077 88.8636 244.988 84.6156C240.352 81.8356 235.923 78.6196 231.626 75.2256C224.956 69.9556 218.69 64.0816 212.622 57.9656C209.796 55.1173 207.043 52.107 204.279 49.0854L204.278 49.0847L204.277 49.0837C197.274 41.4263 190.204 33.6972 181.724 28.3526C178.968 26.6136 175.014 24.2566 171.836 25.8446C168.326 27.5989 167.804 33.3541 167.458 37.1657L167.427 37.5096C167.198 39.9836 167.073 42.4669 166.948 44.9501V44.9502V44.9503C166.84 47.1061 166.732 49.2619 166.555 51.4116C165.348 65.9146 163.342 87.2846 147.895 90.5966C141.577 91.951 134.755 91.6722 128.105 91.4004C125.427 91.2909 122.777 91.1826 120.199 91.1826C117.501 91.1826 114.738 91.2884 111.949 91.3952C105.056 91.6593 98.0103 91.9292 91.421 90.6206C90.718 90.4816 90.01 90.3126 89.296 90.1136C80.9604 87.7882 73.8145 81.8467 66.8823 76.0829C65.217 74.6984 63.5641 73.324 61.91 72.0126C52.891 64.8616 42.031 56.6096 30.425 58.1246C20.794 59.3816 13.755 67.4896 7.398 74.9866C7.15269 75.2758 6.90744 75.5657 6.66199 75.8558C3.78357 79.2584 0.876415 82.6949 -2.496 85.4786C-8.033 90.0486 -13.983 91.1676 -20.699 91.1826H-50.999V97.7126H-18.202C-7.239 97.7096 -0.692001 91.7876 5.975 82.7156C6.72121 81.7003 7.46275 80.6677 8.20745 79.6307C12.4756 73.6873 16.8476 67.5991 22.8 63.8026C30.662 58.7866 39.316 60.4906 47.06 64.9396C53.5136 68.6475 59.1989 73.8879 64.8789 79.1236C71.8307 85.5314 78.7746 91.932 87.11 95.5076C93.9608 98.4449 101.765 98.1532 109.243 97.8736C111.411 97.7926 113.551 97.7126 115.633 97.7126C118.972 97.7126 122.319 97.7575 125.67 97.8024C132.84 97.8987 140.024 97.9951 147.163 97.6516C150.77 97.4046 154.297 96.5316 157.342 94.2486C167.544 86.5792 168.687 69.5146 169.596 55.9471C169.725 54.0212 169.849 52.1657 169.994 50.4176C170.067 49.5123 170.111 48.4515 170.159 47.3014C170.394 41.6407 170.718 33.8182 175.091 31.7446C179.856 29.4854 186.356 35.2198 190.185 38.5972C190.408 38.7944 190.623 38.9835 190.827 39.1626C195.647 43.3839 200.045 48.1529 204.442 52.9202L204.443 52.921L204.443 52.9212C206.57 55.2278 208.697 57.534 210.871 59.7776C219.002 68.1656 227.412 76.2656 236.502 83.3206C241.432 87.1466 246.469 90.9216 251.959 93.6746C252.548 93.9696 253.133 94.2376 253.703 94.4906C255.301 95.1966 256.931 95.8216 258.592 96.3126C262.203 97.3746 265.887 97.6996 269.61 97.7126ZM304.384 114.836C301.098 114.836 297.813 114.836 294.527 114.836H294.471C287.918 114.837 281.364 114.838 274.811 114.836C270.284 114.789 265.866 114.032 261.576 112.387C250.791 108.247 241.755 99.7075 233.11 91.5361L233.092 91.5195C232.605 91.0597 232.12 90.6011 231.636 90.1446C224.532 83.4474 217.728 76.3821 210.922 69.314C209.304 67.6341 207.686 65.9539 206.064 64.2786C205.315 63.5037 204.568 62.7219 203.821 61.939L203.817 61.9356L203.817 61.9356C200.365 58.3207 196.894 54.685 193.052 51.6206C190.478 49.5666 186.965 46.8156 183.658 47.5766C179.834 48.4566 178.859 53.9429 178.216 57.561L178.214 57.5726C177.456 61.8383 177.135 66.1809 176.815 70.5203L176.815 70.5206L176.815 70.5209C176.639 72.9106 176.462 75.2993 176.213 77.6736L176.183 77.961C175.458 84.8383 174.718 91.8561 172.691 98.4226C170.27 106.204 165.864 112.494 158.427 114.24C156.588 114.67 154.708 114.818 152.833 114.831C146.218 114.878 139.602 114.864 132.986 114.849H132.986C129.801 114.842 126.616 114.836 123.431 114.836C120.638 114.836 117.795 114.935 114.933 115.034H114.933C108.439 115.261 101.854 115.49 95.561 114.572C90.248 113.788 85.531 110.784 81.286 107.241C75.9055 102.75 71.1547 97.3991 66.4165 92.062L66.4162 92.0617C64.6934 90.1211 62.9722 88.1823 61.223 86.2876L60.7003 85.7209C53.8654 78.3096 45.4541 69.1888 35.712 67.9126C24.381 66.4286 17.669 79.0136 12.875 88.5556C12.2703 89.7591 11.6603 91.0244 11.0348 92.3219C6.72196 101.268 1.67041 111.746 -7.483 114.107C-11.6622 115.184 -16.1421 115.051 -20.5148 114.92H-20.5151C-21.9367 114.878 -23.347 114.836 -24.732 114.836H-50.999V107.969C-46.8983 107.969 -42.7908 108.016 -38.6813 108.064H-38.6812H-38.6804C-30.104 108.164 -21.5189 108.264 -12.969 107.93C-12.072 107.894 -11.169 107.81 -10.262 107.68C-0.101536 105.63 5.06391 96.1138 10.269 86.5245C14.8134 78.1526 19.3879 69.725 27.343 66.1616C41.1608 59.9723 55.2991 75.1838 65.7472 86.425L65.7475 86.4253C67.4722 88.281 69.0964 90.0284 70.602 91.5536C78.218 99.2676 86.896 107.646 97.653 107.947C109.124 108.266 120.624 108.166 132.115 108.066H132.115L132.118 108.066C137.724 108.017 143.329 107.969 148.927 107.969H149.031C149.648 107.969 150.263 107.969 150.874 107.953C167.147 107.508 171.384 90.0446 173.084 74.5816C173.43 71.4398 173.675 68.2862 173.921 65.1324L173.921 65.1315C174.168 61.9706 174.414 58.8094 174.761 55.6596C174.797 55.3296 174.833 54.9948 174.869 54.6562C175.257 51.0278 175.69 46.9658 177.428 43.8826C179.743 39.7756 183.715 40.8106 187.041 42.7506C192.781 46.0998 197.64 51.3542 202.323 56.418L202.324 56.4187C203.076 57.2315 203.823 58.0393 204.568 58.8336C210.238 64.8746 215.95 70.8826 221.855 76.6316C223.668 78.3956 225.486 80.1536 227.328 81.8786L228.118 82.6173L228.118 82.6174C237.014 90.9386 246.366 99.6862 257.139 104.599C260.455 106.11 263.895 107.182 267.456 107.638C275.865 108.713 284.554 108.452 293.164 108.195C296.929 108.082 300.679 107.97 304.384 107.97V114.836ZM295.957 131.972C298.766 131.966 301.575 131.96 304.383 131.96V124.748C301.328 124.748 298.272 124.759 295.216 124.77C288.815 124.793 282.414 124.816 276.015 124.738C273.457 124.652 270.925 124.259 268.426 123.648C265.282 122.791 262.274 121.532 259.365 119.942C250.034 114.837 242.15 106.889 234.469 99.1447C234.232 98.9051 233.994 98.6657 233.757 98.4266C228.635 93.2658 223.585 88.0197 218.534 82.7733C215.869 80.006 213.205 77.2386 210.53 74.4836C210.285 74.2312 210.04 73.9786 209.795 73.7261C207.589 71.4522 205.382 69.1776 203.108 66.9896C202.643 66.5415 202.119 66.0144 201.549 65.4404C197.663 61.5252 191.608 55.4262 186.943 57.3266C182.305 59.2155 181.667 68.0188 181.241 73.9054C181.168 74.9058 181.102 75.8219 181.023 76.6056C180.805 78.7271 180.622 80.8531 180.439 82.9792C180.288 84.7264 180.138 86.4737 179.968 88.2186C179.612 91.8596 179.237 95.5026 178.652 99.1076C176.46 112.621 171.26 124.182 157.898 124.707C157.246 124.733 135.947 124.748 125.956 124.748C123.052 124.748 120.115 124.83 117.166 124.914C110.627 125.098 104.032 125.284 97.62 124.572C87.548 123.434 79.766 114.734 73.063 106.932C70.6742 104.151 68.3562 101.294 66.0383 98.4362C62.379 93.9252 58.7197 89.4143 54.782 85.2066C49.106 79.1416 41.197 71.0886 32.754 72.4306C23.8067 73.8527 19.0834 85.4355 15.6483 93.8592C15.4626 94.3146 15.2806 94.7607 15.102 95.1956C14.6267 96.3524 14.154 97.541 13.6748 98.746C10.3263 107.166 6.65734 116.391 -0.453003 121.251C-0.916 121.566 -1.38 121.857 -1.846 122.123C-2.312 122.39 -2.779 122.633 -3.247 122.853C-6.338 124.307 -9.642 124.707 -12.966 124.747C-21.5363 124.763 -30.1071 124.758 -38.6777 124.753C-42.7845 124.751 -46.8913 124.749 -50.998 124.749V131.958C-46.7724 131.958 -42.5466 131.959 -38.3209 131.96C-29.8692 131.962 -21.4174 131.964 -12.966 131.958H-12.9125C-12.0309 131.958 -11.1377 131.958 -10.235 131.911C-9.316 131.863 -8.39 131.747 -7.455 131.598C-6.504 131.44 -5.565 131.215 -4.639 130.922C5.13 127.863 10.362 117.813 14.101 107.951C14.8519 105.97 15.5888 103.682 16.3701 101.256C19.503 91.5275 23.348 79.588 31.657 76.4536C40.597 73.0806 49.636 83.4016 55.295 89.9206C59.0918 94.2949 62.6368 98.9268 66.182 103.559C69.2048 107.508 72.2278 111.458 75.407 115.249C81.984 123.09 89.655 131.026 99.692 131.86C106.186 132.385 112.787 132.239 119.356 132.093C122.405 132.026 125.446 131.959 128.467 131.959H157.914C161.09 131.958 164.271 131.831 167.343 130.84C180.455 126.083 181.908 106.678 182.973 92.4588C183.099 90.7754 183.22 89.1647 183.354 87.6596C183.428 86.8222 183.497 85.9743 183.567 85.1196C183.993 79.8998 184.439 74.4294 186.127 69.6036C188.995 61.4046 195.233 64.9556 200.124 68.8976C209.331 76.3135 217.426 85.3737 225.523 94.4345C235.49 105.588 245.457 116.743 257.499 124.834C263.897 129.13 270.761 131.89 278.284 131.954C284.174 132 290.066 131.986 295.957 131.972Z" fill="#5658DD"/>
</g>
</svg>
