<svg width="32" height="32" viewBox="0 0 32 32" fill="none" xmlns="http://www.w3.org/2000/svg">
<g filter="url(#filter0_d_0_271)">
<circle cx="16" cy="16" r="14" fill="url(#paint0_linear_0_271)"/>
</g>
<path d="M19.724 10.053C19.5545 9.96807 19.3516 9.98627 19.2 10.1L15.333 13H12.5C11.6716 13 11 13.6716 11 14.5V17.5C11 18.3284 11.6716 19 12.5 19H15.333L19.2 21.9C19.2865 21.9649 19.3918 22 19.5 22C19.5777 21.9997 19.6544 21.9816 19.724 21.947C19.8932 21.8622 20 21.6892 20 21.5V10.5C20 10.3108 19.8932 10.1378 19.724 10.053Z" fill="#4299E1"/>
<defs>
<filter id="filter0_d_0_271" x="0" y="0" width="32" height="32" filterUnits="userSpaceOnUse" color-interpolation-filters="sRGB">
<feFlood flood-opacity="0" result="BackgroundImageFix"/>
<feColorMatrix in="SourceAlpha" type="matrix" values="0 0 0 0 0 0 0 0 0 0 0 0 0 0 0 0 0 0 127 0" result="hardAlpha"/>
<feOffset/>
<feGaussianBlur stdDeviation="1"/>
<feColorMatrix type="matrix" values="0 0 0 0 0.0823529 0 0 0 0 0.0901961 0 0 0 0 0.0980392 0 0 0 0.04 0"/>
<feBlend mode="normal" in2="BackgroundImageFix" result="effect1_dropShadow_0_271"/>
<feBlend mode="normal" in="SourceGraphic" in2="effect1_dropShadow_0_271" result="shape"/>
</filter>
<linearGradient id="paint0_linear_0_271" x1="29.65" y1="29.9446" x2="29.65" y2="2.64463" gradientUnits="userSpaceOnUse">
<stop stop-color="#55595F" stop-opacity="0.36"/>
<stop offset="1" stop-color="#55595F" stop-opacity="0.36"/>
</linearGradient>
</defs>
</svg>
