<svg width="1646" height="1364" viewBox="0 0 1646 1364" fill="none" xmlns="http://www.w3.org/2000/svg">
<path fill-rule="evenodd" clip-rule="evenodd" d="M151.631 834.954C170.656 820.967 192.385 814.052 218.788 814.052C237.653 814.052 258.908 817.586 283.249 824.594C299.104 829.16 313.523 833.042 326.531 836.502C323.414 835.772 320.215 835.028 316.927 834.264C303.138 831.059 287.508 827.425 269.986 822.933C153.37 793.037 125.867 852.456 75.9386 960.322L75.936 960.328C73.428 965.747 70.862 971.29 68.225 976.952C38.751 1040.23 24.609 1076.71 23.961 1112.88C23.302 1149.62 36.212 1185.19 71.594 1244.13C106.985 1303.09 131.784 1330.32 163.095 1344.62C164.057 1345.05 165.025 1345.48 166 1345.9C156.27 1343.42 147.439 1340.27 139.084 1336.26C106.331 1320.55 81.2043 1292.28 46.3703 1231.95C11.5363 1171.61 -0.384725 1135.72 2.38627 1099.5C5.11827 1063.79 22.4683 1028.29 57.9123 966.895C61.0973 961.378 64.1983 955.976 67.2293 950.695L67.2333 950.688C97.0204 898.796 120.548 857.808 151.631 834.954ZM186.138 1349.89C184.393 1349.63 182.676 1349.35 180.987 1349.06C175.023 1347.36 169.38 1345.29 163.925 1342.8C133.027 1328.69 108.466 1301.67 73.309 1243.1C38.142 1184.52 25.309 1149.23 25.96 1112.92C26.602 1077.11 40.685 1040.81 70.038 977.796C72.551 972.401 74.9986 967.113 77.3939 961.939L77.751 961.168L77.7532 961.163C102.404 907.907 121.875 865.843 149.231 841.53C167.549 825.248 189.296 817.271 216.819 817.271C232.386 817.271 249.804 819.824 269.489 824.871C284.195 828.64 297.565 831.805 309.633 834.62C306.836 834.062 303.968 833.495 301.024 832.913L301.021 832.912L301.018 832.912L300.965 832.901L300.964 832.901C288.141 830.367 273.61 827.495 257.3 823.858C148.495 799.596 126.33 860.271 86.0918 970.42L86.0878 970.431L86.0724 970.473C84.0553 975.994 81.9924 981.64 79.8708 987.409C56.1058 1052.01 45.0238 1089.12 46.3208 1125.25C47.6378 1161.96 61.3588 1196.85 96.9448 1254C132.486 1311.08 156.681 1337.09 186.138 1349.89ZM202.736 1351.89C199.951 1351.63 197.237 1351.34 194.588 1351.02C192.044 1350.15 189.549 1349.18 187.088 1348.12C158.351 1335.69 133.553 1309.01 98.6428 1252.94C63.2618 1196.12 49.6228 1161.5 48.3198 1125.18C47.0348 1089.38 58.0758 1052.45 81.7478 988.099C83.6883 982.823 85.579 977.65 87.4312 972.582L87.4375 972.565L87.4453 972.544L87.9668 971.117C107.829 916.745 123.517 873.8 147.375 848.206C172.358 821.403 206.126 814.494 256.864 825.81C270.513 828.853 282.912 831.361 294.107 833.583C291.576 833.172 288.983 832.755 286.322 832.328L286.251 832.316L286.25 832.316L286.249 832.316L286.248 832.316C274.342 830.403 260.851 828.235 245.688 825.391C144.349 806.382 127.156 868.061 95.9445 980.03L95.942 980.039C94.375 985.661 92.772 991.412 91.121 997.287C72.671 1062.94 64.432 1100.52 67.513 1136.53C70.603 1172.64 85.53 1208 120.753 1262.64C154.235 1314.57 177.086 1339.62 202.736 1351.89ZM218.563 1353.09C215.254 1352.9 212.039 1352.68 208.91 1352.43C208.822 1352.39 208.734 1352.36 208.646 1352.32C181.609 1341.3 157.437 1315.85 122.434 1261.55C86.95 1206.51 72.605 1172.58 69.506 1136.36C66.451 1100.66 74.663 1063.24 93.047 997.828C94.5841 992.356 96.0796 986.993 97.544 981.741L97.869 980.576L97.8706 980.57C113.273 925.315 125.439 881.67 146.018 854.962C162.141 834.037 183.365 824.01 212.819 824.01C222.688 824.01 233.486 825.137 245.319 827.357C257.955 829.727 269.425 831.627 279.786 833.301C277.509 833.022 275.178 832.739 272.789 832.45L272.788 832.45L272.787 832.45L272.786 832.45C261.732 831.112 249.202 829.595 235.098 827.481C140.894 813.358 128.323 875.794 105.504 989.13L105.501 989.144L105.454 989.379L105.452 989.387C104.322 995.002 103.166 1000.74 101.973 1006.61C88.4603 1073.05 82.8583 1110.97 87.5733 1146.77C92.3003 1182.67 107.862 1217.25 143.079 1270.11C174.464 1317.23 196.035 1341.2 218.563 1353.09ZM234.102 1353.81C230.524 1353.69 227.047 1353.54 223.665 1353.37C200.117 1342.46 177.432 1318.07 144.743 1269C109.257 1215.74 94.3003 1182.54 89.5563 1146.51C85.8283 1118.21 87.0303 1090.11 103.933 1007C105.143 1001.05 106.316 995.232 107.462 989.539C118.722 933.612 127.616 889.437 145.128 861.771C163.422 832.87 191.079 822.908 234.801 829.458C246.509 831.213 257.127 832.557 266.718 833.728C264.646 833.561 262.525 833.394 260.352 833.223L260.35 833.223L260.332 833.221C250.111 832.418 238.528 831.507 225.468 830.075C138.08 820.499 129.798 883.463 114.763 997.767L114.761 997.781L114.714 998.141C113.974 1003.76 113.218 1009.51 112.434 1015.38C103.497 1082.38 100.336 1120.51 106.538 1156.02C112.759 1191.64 128.864 1225.41 163.981 1276.5C193.525 1319.49 213.962 1342.3 234.102 1353.81ZM288.757 1354.47C286.435 1354.47 284.077 1354.48 281.684 1354.48C265.861 1354.48 251.605 1354.34 238.647 1353.96C217.724 1343.26 196.327 1320.03 165.629 1275.37C130.236 1223.88 114.755 1191.44 108.509 1155.68C103.602 1127.59 103.235 1099.47 114.416 1015.65C115.202 1009.76 115.96 1004 116.702 998.363L116.702 998.362L116.744 998.042C124.162 941.642 130.022 897.094 144.667 868.615C157.815 843.046 178.052 831.133 209.223 831.133C214.272 831.133 219.611 831.445 225.25 832.064C238.299 833.494 249.867 834.404 260.079 835.208L260.079 835.208L260.08 835.208L260.194 835.217L260.195 835.217C319.721 839.899 339.774 841.476 397.121 924.904C433.124 977.281 451.952 1008.22 461.574 1042.35C471.339 1076.99 471.713 1114.28 462.954 1179.94C454.314 1244.71 444.309 1278.35 427.271 1299.94C410.306 1321.43 386.003 1332.04 341.211 1346.4C339.55 1346.93 337.915 1347.45 336.306 1347.96C334.704 1348.35 333.078 1348.75 331.426 1349.15C329.609 1349.59 327.821 1350.02 326.061 1350.44C324.281 1350.75 322.473 1351.07 320.638 1351.38C318.631 1351.73 316.657 1352.07 314.714 1352.4C312.769 1352.62 310.794 1352.84 308.79 1353.06C306.568 1353.3 304.383 1353.54 302.233 1353.76C300.129 1353.88 297.993 1354 295.825 1354.11C293.43 1354.23 291.075 1354.35 288.757 1354.47ZM315.937 1356.18C366.385 1355.14 398.155 1351.01 425.148 1338.07C458.307 1322.16 483.67 1293.67 518.729 1232.95C553.789 1172.22 565.78 1136.01 562.975 1099.34C560.213 1063.25 542.785 1027.55 507.187 965.895C450.238 867.255 420.977 859.491 334.119 836.447L334.063 836.433C319.289 832.512 302.547 828.07 283.802 822.672C159.031 786.747 125.808 844.625 65.4972 949.695L65.4953 949.698C62.4643 954.979 59.3643 960.38 56.1793 965.895C20.5813 1027.55 3.15427 1063.25 0.392275 1099.34C-2.41373 1136.01 9.57828 1172.22 44.6373 1232.95C79.6973 1293.67 105.06 1322.16 138.219 1338.07C150.812 1344.11 164.443 1348.23 180.526 1351.01C187.432 1352.97 194.756 1354.45 202.698 1355.52C209.14 1357.14 215.939 1358.26 223.281 1358.95C229.28 1360.26 235.578 1361.05 242.352 1361.38C247.955 1362.41 253.807 1362.89 260.074 1362.89C260.179 1362.89 260.283 1362.89 260.388 1362.89C264.058 1363.4 267.804 1363.64 271.638 1363.64C285.104 1363.64 299.665 1360.71 315.937 1356.18ZM334.133 1353.63C376.56 1350.11 403.888 1344.33 426.837 1330.79C456.483 1313.31 478.299 1283.63 507.332 1221.3C536.359 1158.98 545.48 1122.25 540.985 1085.78C536.56 1049.88 518.682 1015.08 482.755 955.227C442.816 888.692 417.448 865.315 378.516 850.927C432.36 867.79 460.044 888.238 505.455 966.895C540.898 1028.29 558.248 1063.79 560.98 1099.5C563.752 1135.72 551.831 1171.61 516.997 1231.95C482.163 1292.28 457.035 1320.55 424.283 1336.26C400.987 1347.44 373.983 1351.97 334.133 1353.63ZM428.016 1323.44C407.6 1338.09 382.749 1345.18 343.863 1350.74C380.421 1347.17 405.003 1341.35 425.82 1329.07C455.076 1311.81 476.677 1282.37 505.52 1220.45C534.369 1158.51 543.444 1122.08 538.999 1086.03C534.618 1050.48 516.82 1015.86 481.04 956.256C435.333 880.11 408.855 860.922 358.787 846.691C395.161 859.206 419.675 881.388 459.75 945.747C495.888 1003.78 514.132 1037.67 520.076 1073.3C526.111 1109.48 519.655 1146.59 496.252 1210.21C472.84 1273.85 454.346 1304.54 428.016 1323.44ZM352.919 1347.35C388.296 1339.93 410.736 1331.65 428.72 1316.04C451.926 1295.9 467.313 1264.36 485.49 1199.68C503.657 1135.03 507.648 1097.68 500.212 1061.85C492.889 1026.56 474.356 993.601 438.12 937.392C398.011 875.173 374.336 854.153 340.365 843.382C386.878 855.179 412.189 873.151 458.053 946.805C494.048 1004.61 512.215 1038.33 518.103 1073.63C524.075 1109.43 517.644 1146.26 494.375 1209.52C471.415 1271.93 452.483 1303.42 426.85 1321.82C408.417 1335.04 386.199 1342.03 352.919 1347.35ZM428.984 1308.61C412.586 1325.79 390.345 1335.24 362.031 1343.3C391.662 1336.45 411.39 1328.43 427.409 1314.53C449.992 1294.93 465.736 1262.57 483.565 1199.13C501.636 1134.83 505.617 1097.73 498.253 1062.25C490.995 1027.28 472.537 994.473 436.439 938.476C390.582 867.34 366.403 850.513 323.293 840.961C354.956 850.117 377.801 870.026 417.811 930.088C454.041 984.473 472.792 1016.49 481.364 1051.37C490.067 1086.78 488.356 1124.26 475.051 1189.68C461.737 1255.14 449.251 1287.38 428.984 1308.61ZM369.222 1339.02C394.773 1329.61 414.686 1319.11 428.842 1301.17C446.348 1279 456.132 1246.21 464.936 1180.2C473.735 1114.25 473.346 1076.74 463.499 1041.81C458.652 1024.61 451.176 1007.4 439.969 987.64C429.397 968.997 415.853 948.625 398.769 923.771C358.915 865.79 336.881 846.972 307.361 839.328C347.307 846.805 370.392 862.511 416.147 931.196C452.245 985.384 470.921 1017.26 479.422 1051.84C488.048 1086.94 486.332 1124.19 473.092 1189.28C460.03 1253.5 447.258 1286.57 427.537 1307.23C413.596 1321.84 395.957 1330.78 369.222 1339.02Z" fill="url(#paint0_linear_0_32)"/>
<path fill-rule="evenodd" clip-rule="evenodd" d="M943.999 58.4824L959.203 50.0562L1065.29 113.502L1082.06 123.619V123.619L1089.43 128.077V128.077L1098.39 133.51V133.51C1107.68 139.158 1117.5 145.242 1127.07 151.768C1128.42 152.685 1129.76 153.612 1131.1 154.549C1136.57 158.418 1141.83 162.508 1146.84 166.792C1151.84 171.071 1156.6 175.546 1161.08 180.188C1169.97 189.429 1178.55 199.972 1187.32 212.418C1192.7 220.05 1198.05 227.996 1203.27 235.835L1207.16 241.688C1208.65 243.916 1210.13 246.145 1211.61 248.37L1213.04 250.501C1221.58 263.163 1229.55 273.61 1237.34 282.384C1246.54 292.733 1256.54 301.249 1267.07 307.716L1268.18 308.388C1279.13 314.934 1291.77 319.937 1305.76 323.259C1318.02 326.171 1331.48 328.271 1348.13 329.865L1362.67 331.247C1372.3 332.169 1382.08 333.15 1391.61 334.331C1406.83 336.218 1420.28 338.865 1432.74 342.422C1445.23 346.006 1457.71 350.931 1469.83 357.055C1480.45 362.465 1490.84 368.382 1500.62 374.101L1504.31 376.271V376.271C1514.55 382.304 1524.76 388.355 1534.95 394.4L1641.51 458.115L1641.21 475.455L1530.32 409.136C1525.46 406.251 1520.59 403.366 1515.72 400.482L1504.27 393.707V393.707L1496.53 389.137V389.137L1493.95 387.62C1482.43 380.882 1472.4 375.266 1461.82 370.14C1449.53 364.219 1436.67 359.664 1423.6 356.601C1410.98 353.643 1397.08 351.56 1381.11 350.233C1373.87 349.632 1366.49 349.118 1359.21 348.636L1345.42 347.729V347.729L1336.75 347.145V347.145C1334.71 347.002 1332.71 346.847 1330.74 346.681C1316.94 345.515 1304.93 343.776 1294.19 341.391C1280.66 338.389 1268.44 333.734 1257.87 327.55L1256.83 326.934C1246.14 320.512 1236.05 311.839 1226.83 301.156C1218.64 291.663 1210.44 280.349 1201.75 266.567C1199.84 263.534 1197.93 260.489 1196.03 257.441L1189.51 246.975C1185.81 241.049 1182.04 235.053 1178.27 229.22C1169.64 215.875 1161.34 204.682 1152.89 195.002C1144.13 184.962 1134.2 175.818 1123.36 167.824C1112.64 159.971 1101.32 152.901 1090.7 146.43C1082.58 141.499 1074.47 136.599 1066.37 131.714L1057.53 126.382L943.999 58.4824ZM976.422 40.5035L1074.02 98.874C1082.29 103.854 1090.57 108.844 1098.86 113.858L1107.15 118.881C1117.08 124.912 1128.75 132.099 1140.01 139.677C1151.18 147.23 1161.53 155.444 1170.77 164.092C1180.17 172.911 1189.43 183.041 1198.3 194.201C1205.7 203.517 1213 213.385 1220.1 223.09L1223.78 228.128C1233.51 241.44 1241.94 251.807 1250.34 260.754C1259.7 270.735 1269.76 279.049 1280.26 285.487L1281.46 286.217C1292.4 292.755 1304.93 297.93 1318.7 301.6C1330.57 304.76 1343.76 307.3 1360.22 309.596L1366.2 310.431C1378.21 312.116 1390.48 313.901 1402.46 316.094C1416.59 318.681 1430 322.121 1442.31 326.317C1454.57 330.517 1466.47 335.706 1478.7 342.184C1490.74 348.579 1502.3 355.298 1513.01 361.606L1522.03 366.942C1526.84 369.786 1531.65 372.631 1536.45 375.478L1545.65 380.941V380.941L1580.08 401.529L1641.84 438.461L1641.53 455.799L1550.41 401.303L1549.41 400.704C1545.98 398.651 1542.55 396.603 1539.12 394.546C1531.62 390.098 1524.12 385.648 1516.61 381.205L1505.26 374.508V374.508L1501.62 372.369C1491.82 366.635 1481.4 360.701 1470.73 355.267C1458.5 349.087 1445.9 344.118 1433.28 340.495C1420.72 336.91 1407.17 334.242 1391.85 332.343C1381.11 331.011 1370.06 329.934 1359.26 328.91L1348.31 327.871C1331.76 326.285 1318.39 324.2 1306.22 321.309C1292.81 318.121 1280.67 313.378 1270.11 307.201L1269.02 306.555C1258.31 300.125 1248.16 291.548 1238.85 281.06C1230.66 271.844 1222.3 260.789 1213.28 247.265L1211.06 243.926V243.926L1208.84 240.585C1202.38 230.874 1195.71 220.832 1188.97 211.27C1180.13 198.743 1171.49 188.124 1162.53 178.804C1158.25 174.374 1153.72 170.1 1148.96 165.991C1143.65 161.401 1138.07 157.025 1132.25 152.909C1130.89 151.956 1129.52 151.012 1128.15 150.079C1118.5 143.503 1108.69 137.432 1099.44 131.805L1098.1 130.997V130.997C1093.1 127.956 1088.09 124.923 1083.08 121.9L1066.27 111.756L961.218 48.9305L976.422 40.5035ZM993.654 30.9513L1082.77 84.2439C1091.03 89.223 1099.32 94.2112 1107.61 99.2218L1118.97 106.096C1127.63 111.364 1138.33 117.946 1148.93 124.817C1155.35 129.007 1161.35 133.208 1167.05 137.486L1169.32 139.199V139.199L1169.87 139.628C1173.49 142.415 1176.99 145.238 1180.39 148.121C1190.16 156.42 1199.87 165.814 1209.25 176.042C1211.44 178.433 1213.6 180.846 1215.77 183.306L1217.4 185.161C1222.29 190.755 1227.25 196.624 1232.6 203.069L1236.99 208.369V208.369L1237.74 209.274C1247.51 221.03 1255.86 230.258 1263.9 238.186C1265.46 239.73 1267.04 241.222 1268.64 242.683L1269.83 243.773C1270.38 244.271 1270.93 244.783 1271.49 245.272L1272.4 246.054V246.054C1279.43 252.182 1286.69 257.564 1294.11 262.106L1295.43 262.907C1306.35 269.434 1318.72 274.847 1332.2 278.996C1334.32 279.65 1336.5 280.29 1338.74 280.923L1340.52 281.421C1349.5 283.901 1359.53 286.245 1371.37 288.639L1372.56 288.878C1385.67 291.507 1399.68 294.42 1413.28 297.895C1414.97 298.33 1416.65 298.776 1418.32 299.232C1430.03 302.429 1441.28 306.152 1451.83 310.323C1463.55 314.985 1475.24 320.546 1487.57 327.32C1494.01 330.882 1500.48 334.557 1506.84 338.21L1515.7 343.304V343.304L1521.83 346.833L1642.2 418.82L1641.89 436.156L1547.89 379.936L1537.47 373.76C1532.67 370.911 1527.86 368.064 1523.04 365.217C1520.04 363.438 1517.04 361.655 1514.03 359.878L1510.42 357.757C1500.73 352.067 1490.38 346.115 1479.65 340.411C1467.32 333.885 1455.32 328.653 1442.97 324.421C1430.56 320.191 1417.06 316.727 1402.83 314.122C1389.81 311.74 1376.47 309.84 1363.49 308.028L1360.51 307.611C1344.12 305.327 1331.01 302.8 1319.23 299.661C1305.64 296.041 1293.28 290.938 1282.5 284.495L1282.24 284.343C1271.56 277.924 1261.32 269.527 1251.8 259.382C1243.87 250.929 1235.9 241.19 1226.81 228.861L1225.33 226.85L1221.78 221.991C1214.65 212.24 1207.32 202.326 1199.87 192.951C1190.93 181.708 1181.61 171.507 1172.15 162.628C1162.82 153.907 1152.39 145.626 1141.14 138.014C1129.95 130.48 1118.69 123.542 1108.19 117.166C1100.09 112.25 1092 107.363 1083.91 102.489L1075.02 97.1319L978.452 39.378L993.654 30.9513ZM995.678 29.8302L1010.88 21.4032L1124.72 89.4884L1129.5 92.441V92.441L1140.11 98.9911C1145.98 102.616 1151.93 106.31 1157.8 110.004C1169.81 117.627 1180.31 124.933 1189.88 132.339C1199.9 140.094 1210.02 148.817 1219.97 158.263L1221.65 159.869C1230.86 168.716 1239.65 177.75 1246.67 185.076L1251.08 189.675C1258.48 197.378 1267.77 206.777 1277.52 215.544C1279.42 217.252 1281.33 218.897 1283.26 220.513C1291.37 227.336 1299.66 233.366 1308.02 238.474L1309.52 239.387V239.387C1320.38 245.88 1332.56 251.574 1345.74 256.314C1358.15 260.782 1370.88 264.53 1381.2 267.425L1387.89 269.283C1402.31 273.307 1413.5 276.674 1423.86 280.093C1436.92 284.414 1449.49 289.269 1461.23 294.522C1472.36 299.532 1483.87 305.415 1496.42 312.508C1502.34 315.874 1508.31 319.317 1514.18 322.716L1527.06 330.181C1528.23 330.86 1529.41 331.539 1530.58 332.215L1642.53 399.172L1642.23 416.507L1522.85 345.107L1516.44 341.422L1510.33 337.901C1503.15 333.773 1495.83 329.599 1488.54 325.568C1476.11 318.741 1464.34 313.146 1452.56 308.462C1451.05 307.863 1449.52 307.272 1447.97 306.692C1437.16 302.625 1425.68 299.021 1413.77 295.958C1404.68 293.633 1395.41 291.565 1386.35 289.662C1383.33 289.027 1380.33 288.409 1377.37 287.808L1371.72 286.667V286.667L1369.31 286.175C1357.8 283.799 1348.03 281.469 1339.3 279.002C1337.07 278.373 1334.9 277.734 1332.79 277.083C1319.45 272.975 1307.22 267.628 1296.45 261.19L1296.19 261.034C1285.52 254.621 1275.13 246.456 1265.3 236.763L1264.13 235.598C1256.3 227.771 1248.1 218.64 1238.5 207.053L1235.88 203.89C1226.81 192.939 1218.94 183.667 1210.72 174.69C1201.29 164.404 1191.52 154.952 1181.68 146.597C1180 145.172 1178.3 143.763 1176.57 142.365L1174.33 140.574V140.574C1172.67 139.256 1170.97 137.949 1169.25 136.648C1163.22 132.08 1156.86 127.604 1150.02 123.14L1148.13 121.919C1136.8 114.619 1125.58 107.762 1116.94 102.53C1105.88 95.8264 1094.82 89.1699 1083.77 82.5115L995.678 29.8302ZM1028.11 11.8573L1133.46 74.8687L1140.4 79.1267V79.1267L1147.34 83.3811C1153.77 87.3195 1160.21 91.2638 1166.64 95.2404L1168.86 96.6272C1180.6 103.966 1190.3 110.402 1199.23 116.776C1209.6 124.176 1220.07 132.324 1230.37 140.994L1232.12 142.474C1242.03 150.874 1251.55 159.416 1259.06 166.233L1262.94 169.757C1270.7 176.774 1280.42 185.405 1290.65 193.713C1300.98 202.109 1311.06 209.276 1321.41 215.578L1322.93 216.495V216.495L1323.15 216.629C1334.11 223.18 1345.76 229.005 1358.78 234.438L1360.9 235.32C1372.61 240.142 1384.38 244.451 1393.9 247.842L1400.73 250.271C1410.51 253.766 1422.41 258.116 1434.14 262.789C1446.76 267.818 1458.99 273.258 1470.49 278.958L1472.36 279.889C1482.34 284.896 1492.85 290.604 1505.24 297.743C1509.63 300.285 1514.01 302.837 1518.39 305.392L1524.96 309.226C1529.75 312.024 1534.53 314.821 1539.32 317.599L1642.88 379.539L1642.58 396.868L1531.6 330.492L1526.45 327.517V327.517L1512.43 319.387C1507.45 316.507 1502.41 313.609 1497.41 310.765C1484.81 303.642 1473.24 297.732 1462.05 292.696C1450.25 287.415 1437.62 282.535 1424.49 278.192L1422.32 277.48C1410 273.469 1397.73 269.947 1387.84 267.192L1381.65 265.467C1371.34 262.575 1358.69 258.843 1346.42 254.431C1333.82 249.898 1322.14 244.484 1311.67 238.331L1310.19 237.45V237.45C1299.58 231.073 1289.04 223.204 1278.86 214.057C1269.11 205.284 1259.87 195.932 1252.51 188.275L1246.91 182.428C1239.66 174.88 1230.7 165.71 1221.35 156.812C1211.35 147.316 1201.18 138.549 1191.11 130.755C1181.52 123.332 1170.98 115.99 1158.87 108.311C1152.03 103.999 1145.06 99.6915 1138.26 95.493L1135.35 93.7007C1132.16 91.73 1128.97 89.7604 1125.76 87.7789L1012.91 20.2803L1028.11 11.8573ZM1045.33 2.308L1175.6 80.2179C1178.29 81.9621 1180.99 83.6962 1183.68 85.4274L1187.73 88.0229C1194.54 92.3834 1201.58 96.893 1208.44 101.458C1218.31 108.034 1228.39 115.188 1238.43 122.747L1240.44 124.264C1250.01 131.516 1259.44 139.005 1267.25 145.282L1275.09 151.599C1283.08 158.019 1292.89 165.789 1302.95 173.263C1314.16 181.601 1324.96 188.862 1335.88 195.384C1346.83 201.936 1358.32 208.01 1371 213.954L1373.07 214.92C1383.42 219.73 1393.8 224.227 1402.53 227.935L1412.48 232.14C1424.93 237.421 1434.85 241.77 1444.12 246.017C1456.47 251.691 1468.41 257.613 1479.63 263.622C1485.08 266.542 1490.56 269.569 1495.94 272.565L1507.75 279.154C1509.9 280.353 1512.05 281.546 1514.2 282.729L1643.21 359.887L1642.91 377.217L1540.34 315.873V315.873L1533.29 311.766V311.766L1526.24 307.651C1521.8 305.06 1517.36 302.467 1512.92 299.881L1506.24 296.008L1503.93 294.682C1491.73 287.694 1481.33 282.1 1471.39 277.165C1459.88 271.46 1447.6 265.998 1434.89 260.929L1432.78 260.095C1421.57 255.67 1410.45 251.616 1401.27 248.336L1391.94 245.014C1382.36 241.579 1370.86 237.315 1359.55 232.592C1347.34 227.494 1335.88 221.807 1325.48 215.679L1323.74 214.646V214.646C1313.45 208.462 1303.44 201.432 1293.2 193.194L1291.91 192.158C1283.84 185.594 1275.39 178.298 1264.86 168.785L1257.52 162.141C1249.99 155.335 1240.89 147.235 1231.66 139.464C1221.29 130.733 1210.78 122.552 1200.4 115.146L1198.71 113.947C1189.65 107.546 1179.74 101.024 1167.7 93.5386C1163.41 90.8858 1159.12 88.2484 1154.83 85.6173L1148.39 81.6742C1143.76 78.8386 1139.14 76.0056 1134.51 73.1577L1030.13 10.7323L1045.33 2.308ZM1640.84 495.075L1521.67 423.801L1513.64 419.046C1507.9 415.644 1502.16 412.242 1496.41 408.844L1487.78 403.751L1485.56 402.448C1475.82 396.745 1464.65 390.395 1452.93 384.97C1440.68 379.364 1427.59 375.187 1414.01 372.553C1401.3 370.087 1387.16 368.418 1370.78 367.45C1365.64 367.146 1360.42 366.873 1355.27 366.613L1342.57 365.979C1337.07 365.701 1331.5 365.407 1326.02 365.076C1309.73 364.093 1295.76 362.287 1283.31 359.556C1269.39 356.501 1256.87 351.69 1246.11 345.258L1245.89 345.128C1235.22 338.712 1225.14 330.031 1215.96 319.322C1207.66 309.649 1199.5 298.261 1191.02 284.512C1187.44 278.706 1183.84 272.754 1180.34 266.926L1175.08 258.199C1172.73 254.291 1170.34 250.347 1167.97 246.474C1159.45 232.59 1151.4 220.993 1143.35 211.02C1134.7 200.301 1124.99 190.775 1114.49 182.702C1103.86 174.583 1092.58 167.492 1081.96 161.037C1074.5 156.506 1067.04 152 1059.59 147.506L1048.79 140.997L926.777 68.0228L941.968 59.6032L1056.49 128.095L1057.24 128.545C1068.02 135.047 1078.83 141.566 1089.65 148.138L1093.01 150.191C1102.59 156.064 1112.61 162.432 1122.17 169.435C1132.87 177.329 1142.7 186.374 1151.38 196.317C1159.75 205.906 1167.99 217.024 1176.58 230.304C1180.37 236.17 1184.16 242.203 1187.89 248.165L1191.58 254.095C1194.4 258.615 1197.22 263.136 1200.05 267.633L1201.47 269.86C1209.69 282.727 1217.5 293.41 1225.31 302.463C1234.41 313.016 1244.36 321.638 1254.9 328.108L1255.98 328.761C1266.93 335.307 1279.64 340.213 1293.75 343.344C1304.58 345.747 1316.67 347.499 1330.56 348.672C1332.54 348.84 1334.56 348.996 1336.62 349.14L1345.31 349.727V349.727L1359.12 350.634C1366.37 351.116 1373.73 351.627 1380.94 352.225C1396.8 353.544 1410.61 355.612 1423.14 358.548C1436.08 361.585 1448.8 366.091 1460.94 371.941C1471.81 377.203 1482.16 383.029 1494.21 390.098L1499.1 392.979V392.979L1507.37 397.861V397.861L1516.31 403.156C1520.74 405.785 1525.11 408.38 1529.36 410.906L1641.15 477.763L1640.84 495.075ZM1640.72 504.039L1631.34 509.239L1512.93 438.421V438.421L1508.22 435.626C1501.75 431.787 1495.28 427.945 1488.79 424.108L1479.06 418.358C1468.79 412.304 1456.77 405.377 1444.07 399.77C1432.01 394.485 1418.74 390.6 1404.63 388.221C1391.95 386.083 1377.68 384.641 1360.99 383.809C1357.86 383.654 1354.73 383.507 1351.6 383.362L1339.27 382.793C1331.59 382.433 1323.8 382.041 1316.17 381.553C1300.09 380.524 1286.18 378.634 1273.62 375.778C1260.16 372.708 1247.97 368.017 1237.39 361.832L1236.29 361.179C1225.61 354.759 1215.5 346.133 1206.26 335.54C1197.83 325.888 1189.62 314.586 1181.16 300.991C1175.66 292.144 1170.18 282.965 1164.89 274.086C1162.65 270.336 1160.42 266.589 1158.18 262.857C1149.64 248.65 1141.73 236.837 1133.98 226.743C1125.32 215.469 1115.79 205.644 1105.64 197.539C1095.23 189.284 1083.91 182.14 1073.23 175.65C1065.46 170.939 1057.7 166.253 1049.95 161.581L1040.05 155.62L920.463 84.0978L920.683 71.4028L924.744 69.1507L1047.75 142.717L1048.65 143.259C1059.38 149.73 1070.14 156.219 1080.91 162.752C1091.5 169.198 1102.76 176.269 1113.26 184.295C1123.63 192.27 1133.23 201.687 1141.78 212.284C1149.77 222.183 1157.78 233.71 1166.25 247.524C1168.62 251.389 1171 255.326 1173.35 259.228L1180.36 270.877C1183.31 275.77 1186.31 280.718 1189.31 285.568C1197.86 299.436 1206.08 310.904 1214.43 320.631C1223.52 331.22 1233.47 339.864 1244.02 346.343L1245.07 346.98C1256.02 353.526 1268.74 358.416 1282.87 361.514C1295.42 364.268 1309.49 366.088 1325.88 367.08C1332.45 367.475 1339.15 367.818 1345.71 368.146L1355.12 368.615C1360.28 368.875 1365.51 369.149 1370.65 369.452C1386.95 370.416 1401 372.075 1413.62 374.523C1427.06 377.132 1440 381.26 1452.08 386.794C1463.43 392.043 1474.15 398.061 1486.76 405.481C1498.04 412.13 1509.29 418.807 1520.52 425.471L1640.84 497.428L1640.72 504.039ZM1614.08 518.784L1504.16 453.041C1492.9 446.344 1481.62 439.642 1470.3 432.961L1467.79 431.48C1457.68 425.542 1446.87 419.457 1435.22 414.501C1423.26 409.452 1409.89 405.741 1395.47 403.474C1382.77 401.477 1368.88 400.128 1351.75 399.226L1337.08 398.463C1327.13 397.938 1317.02 397.364 1307.16 396.596C1291.34 395.365 1277.54 393.276 1264.99 390.209C1251.3 386.868 1238.88 381.894 1228.05 375.426L1227.81 375.283C1217.08 368.836 1206.92 360.318 1197.59 349.961C1188.99 340.401 1180.66 329.302 1172.14 316.028C1165.97 306.428 1159.89 296.417 1153.98 286.633L1148.94 278.287L1147.65 276.167C1139.76 263.224 1132.77 252.722 1125.84 243.391L1124.83 242.033V242.033C1116.13 230.441 1106.7 220.443 1096.8 212.317C1087.17 204.428 1076.91 197.793 1064.47 190.255C1053.39 183.549 1042.33 176.885 1031.29 170.243L920.104 103.746L920.406 86.4075L1039.01 157.338L1056.03 167.603C1061.41 170.847 1066.79 174.099 1072.17 177.362L1074.96 179.06C1084.74 185.057 1094.95 191.625 1104.38 199.108C1114.4 207.108 1123.82 216.818 1132.37 227.965L1133.66 229.654C1140.96 239.314 1148.43 250.538 1156.45 263.89C1157.93 266.358 1159.41 268.833 1160.89 271.311L1163.1 275.029C1168.42 283.944 1173.92 293.162 1179.45 302.051C1187.97 315.741 1196.24 327.127 1204.73 336.858C1213.85 347.314 1223.82 355.888 1234.36 362.362L1235.47 363.033C1246.43 369.584 1259.11 374.529 1273.16 377.731C1285.8 380.611 1299.82 382.515 1316.03 383.553C1323.66 384.041 1331.44 384.433 1339.12 384.794L1346.75 385.146C1351.46 385.363 1356.17 385.578 1360.87 385.812L1363.62 385.954C1379.04 386.795 1392.37 388.186 1404.28 390.196C1418.23 392.548 1431.34 396.387 1443.25 401.606C1454.98 406.785 1466.16 413.118 1475.89 418.828L1478.03 420.086C1484.32 423.793 1490.59 427.509 1496.86 431.226L1511.88 440.137L1629.29 510.358L1614.08 518.784ZM1596.87 528.347L1461.63 447.462L1458.2 445.479C1448.55 439.909 1437.83 433.899 1426.45 429.171C1414.59 424.245 1401.2 420.577 1386.63 418.27L1384.87 417.998C1373.11 416.204 1360.13 414.865 1344.29 413.811L1334.72 413.184C1322.83 412.396 1310.71 411.538 1298.96 410.374C1283.43 408.835 1269.8 406.472 1257.29 403.15C1243.8 399.57 1231.45 394.458 1220.57 387.959L1220.31 387.804C1209.54 381.332 1199.3 372.948 1189.86 362.881C1181.04 353.472 1172.54 342.645 1163.9 329.779C1157.09 319.642 1150.49 309.182 1144.08 298.907L1140.26 292.769C1131.23 278.256 1123.51 266.835 1115.98 256.827C1107.2 245.161 1097.8 235.121 1088.04 226.989C1077.53 218.23 1065.86 210.973 1055.74 204.858C1044.67 198.16 1033.6 191.506 1022.55 184.863L919.766 123.391L920.068 106.06L1030.27 171.965C1041.3 178.605 1052.37 185.269 1063.44 191.973L1065.81 193.413C1077.12 200.321 1086.61 206.56 1095.54 213.869C1105.32 221.91 1114.64 231.792 1123.23 243.242L1123.77 243.964V243.964L1124.31 244.692C1131.56 254.469 1138.87 265.523 1147.22 279.316L1150.3 284.414C1152.32 287.763 1154.37 291.149 1156.43 294.542C1159.37 299.372 1162.33 304.22 1165.33 309.016C1166.07 310.203 1166.82 311.369 1167.57 312.548L1169.49 315.594V315.594L1170.46 317.114V317.114C1179.03 330.477 1187.43 341.66 1196.11 351.307C1205.3 361.513 1215.3 369.962 1225.86 376.439L1227.03 377.151C1238.03 383.72 1250.64 388.77 1264.52 392.16C1277.18 395.253 1291.08 397.359 1307.01 398.598C1316.88 399.366 1327 399.941 1336.95 400.466L1351.65 401.232C1368.67 402.123 1382.49 403.466 1395.16 405.457C1409.42 407.7 1422.64 411.365 1434.44 416.35C1446.94 421.664 1458.51 428.324 1469.29 434.69C1480.6 441.371 1491.88 448.072 1503.14 454.768L1612.07 519.915L1596.87 528.347ZM1579.63 537.884L1452.89 462.082L1449.46 460.089C1439.82 454.491 1429.11 448.45 1417.75 443.711C1405.96 438.791 1392.61 435.046 1378.07 432.581L1376.44 432.308C1365.22 430.459 1352.66 428.948 1337.22 427.588L1334.94 427.39C1329.81 426.951 1324.73 426.509 1319.69 426.048L1317.01 425.801V425.801C1314.77 425.592 1312.54 425.377 1310.32 425.157C1308.39 424.965 1306.47 424.768 1304.55 424.565C1303.15 424.418 1301.75 424.267 1300.36 424.113C1298.73 423.931 1297.11 423.745 1295.48 423.553L1291.4 423.061V423.061C1276.16 421.153 1262.71 418.478 1250.29 414.883C1237.01 411.037 1224.74 405.778 1213.82 399.255C1202.9 392.719 1192.47 384.43 1182.83 374.592C1173.81 365.389 1165.13 354.871 1156.3 342.439C1155.09 340.736 1153.89 339.02 1152.69 337.297C1146.78 328.801 1140.97 320.025 1135.4 311.497L1130.74 304.35C1124.49 294.813 1118.92 286.693 1113.67 279.478L1113.1 278.709C1111.17 276.068 1109.28 273.55 1107.41 271.128C1098.49 259.552 1089.05 249.593 1079.34 241.531C1069.36 233.248 1058.82 226.596 1047.06 219.369L919.423 143.036L919.726 125.707L1021.53 186.594C1032.57 193.228 1043.63 199.88 1054.71 206.579L1056.81 207.852C1066.35 213.656 1077.07 220.461 1086.76 228.535C1096.4 236.561 1105.69 246.487 1114.38 258.039L1115.43 259.433C1122.57 269.026 1129.95 280.01 1138.56 293.834L1142.4 300.001C1148.84 310.32 1155.45 320.815 1162.24 330.903C1170.95 343.863 1179.51 354.773 1188.4 364.257C1197.67 374.152 1207.72 382.443 1218.29 388.924L1219.55 389.685C1230.58 396.279 1243.1 401.462 1256.77 405.091C1269.39 408.443 1283.12 410.824 1298.76 412.372C1311.76 413.661 1325.19 414.574 1338.28 415.432L1342.97 415.737L1346.5 415.975C1361.99 417.054 1374.72 418.424 1386.31 420.255C1400.71 422.531 1413.96 426.155 1425.68 431.027C1438.3 436.271 1450.17 443.143 1460.62 449.197L1594.83 529.466L1579.63 537.884ZM1562.43 547.443L1444.15 476.704L1439.56 474.025C1430.23 468.594 1419.94 462.809 1409.12 458.166C1397.28 453.085 1384.42 449.262 1369.79 446.477L1368.24 446.186C1356.83 444.065 1344.4 442.286 1328.33 440.474L1322.62 439.832C1310.64 438.476 1297.26 436.877 1284.37 434.886C1269.42 432.578 1256.17 429.577 1243.86 425.71C1230.79 421.607 1218.59 416.204 1207.62 409.647L1207.35 409.482L1206 408.643V408.643C1205.16 408.13 1204.33 407.619 1203.5 407.088C1195.76 402.114 1188.25 396.337 1181.11 389.851C1180.75 389.524 1180.38 389.207 1180.02 388.876L1179.78 388.644V388.644C1178.63 387.579 1177.49 386.499 1176.36 385.396C1167.15 376.412 1158.27 366.219 1149.23 354.233L1147.72 352.226C1140.45 342.504 1133.36 332.423 1125.18 320.561L1123.09 317.524C1113.83 304.146 1106.39 294.052 1099.11 284.986C1089.87 273.484 1080.57 263.992 1070.69 255.967C1060.59 247.759 1049.61 240.889 1038.31 233.99L919.085 162.685L919.388 145.349L1046.02 221.086L1049.88 223.462C1060.03 229.756 1069.29 235.788 1078.07 243.078C1087.66 251.048 1097.01 260.899 1105.84 272.357C1108.34 275.611 1110.89 279.037 1113.53 282.698L1114.41 283.927C1119.14 290.547 1124.17 297.943 1129.73 306.469L1133.3 311.936C1139.13 320.869 1145.24 330.116 1151.53 339.135C1152.58 340.635 1153.62 342.126 1154.68 343.604C1163.57 356.121 1172.31 366.717 1181.41 375.999C1190.78 385.566 1200.89 393.695 1211.48 400.181L1212.8 400.979C1223.86 407.591 1236.29 412.917 1249.74 416.811C1262.26 420.436 1275.81 423.131 1291.15 425.052L1292.8 425.244V425.244C1295.24 425.542 1297.7 425.828 1300.17 426.103C1301.54 426.254 1302.9 426.402 1304.27 426.547C1306.23 426.754 1308.19 426.955 1310.16 427.15L1313.44 427.47V427.47L1318.16 427.917V427.917L1319.6 428.049C1323.37 428.393 1327.15 428.73 1330.96 429.062L1337.05 429.588C1353.17 431.007 1366.15 432.595 1377.74 434.561C1392.13 437.001 1405.33 440.702 1416.98 445.563C1429.61 450.833 1441.45 457.735 1451.88 463.82L1577.62 539.021L1562.43 547.443ZM1527.97 566.53L1426.67 505.951L1423.2 503.901C1420.91 502.549 1418.66 501.224 1416.42 499.923L1413.73 498.357V498.357L1412.16 497.448V497.448L1409.49 495.916V495.916C1403.75 492.643 1398.08 489.518 1392.26 486.503L1392.2 486.471C1379.64 481.054 1366.73 476.633 1353.8 473.331L1351.57 472.768C1341.33 470.217 1330.12 467.867 1315.9 465.291L1306.45 463.596C1304.91 463.319 1303.4 463.045 1301.9 462.772L1298.17 462.085V462.085L1295.65 461.616V461.616L1292.06 460.939V460.939L1290.27 460.595V460.595L1286.99 459.96V459.96L1285.04 459.575V459.575L1281.74 458.917V458.917L1279.96 458.551V458.551L1276.43 457.823V457.823C1275.48 457.624 1274.54 457.419 1273.59 457.215C1272.86 457.058 1272.12 456.903 1271.38 456.742C1257 453.598 1244.13 449.945 1232.05 445.579C1228.87 444.43 1225.73 443.213 1222.64 441.933C1213.47 438.13 1204.71 433.751 1196.51 428.866L1196.23 428.704C1186.31 422.724 1176.62 415.724 1167.44 407.81L1166.3 406.815C1165.69 406.285 1165.08 405.763 1164.48 405.225C1154.93 396.674 1145.66 387.122 1136.15 376.023C1127.68 366.137 1119.3 355.684 1111.43 345.739L1108.4 341.905C1098.57 329.503 1090.7 320.146 1083.05 311.745C1074.14 301.97 1064.29 292.721 1053.73 284.21C1043.87 277.347 1033.59 270.973 1024.38 265.383L1020.64 263.126L918.396 201.977V201.977L918.698 184.639L1028.54 250.33L1031.9 252.371C1041.46 258.204 1051.46 264.468 1061.1 271.415C1071.3 280.086 1080.85 289.632 1089.48 299.789L1090.96 301.54C1097.88 309.779 1105.11 319.051 1114.02 331.124L1115.31 332.868C1123.39 343.854 1132.09 355.549 1140.99 366.618C1150.31 378.221 1159.45 388.158 1168.92 396.999C1178.82 406.246 1189.41 414.285 1200.42 420.898L1200.78 421.113C1211.91 427.763 1224.15 433.367 1237.18 437.768C1249.47 441.922 1262.62 445.274 1277.37 448.015C1290.09 450.377 1302.9 452.332 1318.05 454.503L1319.58 454.721C1336.68 457.166 1349.55 459.405 1361.3 461.978C1374.44 464.857 1387.46 468.87 1400 473.907C1411.57 479.686 1422.87 486.262 1434.38 493.05L1543.16 558.108L1527.97 566.53ZM1508.7 577.214L1493.51 585.636L1409.18 535.204C1398.89 529.048 1388.78 523.031 1378.51 517.227L1375.03 515.277C1363.27 509.457 1350.91 504.136 1338.27 499.446C1326.56 495.692 1314.21 492.129 1300.56 488.568L1292.3 486.427C1281.33 483.58 1270.14 480.628 1259.1 477.454C1245.18 473.455 1232.68 469.177 1220.88 464.378C1208.94 459.52 1197.5 453.885 1186.85 447.615L1184.97 446.498V446.498C1174.08 439.956 1163.41 432.381 1153.25 423.979C1143.43 415.873 1133.79 406.935 1123.76 396.654L1121.89 394.723C1114.08 386.676 1106.55 378.579 1097.86 369.184L1095.76 366.904C1085.76 356.085 1076.5 346.548 1067.4 337.718C1057.43 328.848 1047.05 320.517 1036.51 312.926C1026.22 306.256 1015.6 299.824 1005.49 293.771L917.703 241.268V241.268L918.005 223.939L1013.58 281.103C1024.87 287.878 1034.51 293.807 1043.98 300.146C1054.22 307.914 1064.31 316.574 1073.96 325.854L1075.73 327.755C1083.45 336.049 1091.49 345.116 1100.22 355.369L1106.1 362.278C1114.04 371.57 1121.12 379.712 1128.45 387.735C1138.29 398.5 1147.8 407.802 1157.53 416.169C1162.63 420.553 1167.88 424.696 1173.23 428.576C1174.11 429.211 1174.99 429.829 1175.88 430.452L1177.18 431.374V431.374C1178.12 432.022 1179.06 432.651 1180 433.281L1181.28 434.146V434.146L1182.2 434.749V434.749L1183.14 435.349C1183.95 435.873 1184.75 436.399 1185.57 436.911L1186 437.179V437.179C1187.12 437.877 1188.23 438.57 1189.35 439.244L1189.81 439.515V439.515C1200.98 446.185 1213.06 452.033 1225.72 456.896C1237.76 461.523 1250.52 465.51 1264.73 469.084C1277.52 472.304 1290.76 475.224 1302.48 477.752L1305.37 478.375C1320.22 481.569 1333.41 484.729 1345.62 488.019C1358.53 492.242 1371.03 497.155 1382.78 502.622C1393.87 508.611 1404.68 514.995 1414.86 521.088L1508.7 577.214ZM1474.25 596.3L1459.05 604.726L1381.6 558.406C1373.38 553.5 1365.59 548.866 1357.74 544.263C1346.16 537.89 1334.23 531.887 1322.24 526.408C1310.45 521.497 1298.18 516.752 1284.73 511.898L1271.71 507.356C1263.38 504.444 1254.93 501.469 1246.63 498.455C1233.06 493.522 1220.93 488.621 1209.53 483.472C1197.33 477.953 1185.53 471.806 1174.48 465.204C1163.4 458.561 1152.44 451.137 1141.83 443.029C1131.9 435.441 1121.88 427.113 1111.2 417.57C1103.15 410.379 1095.06 402.974 1087.17 395.739L1081.52 390.552C1071.03 381.115 1061.15 372.612 1051.28 364.534C1040.94 356.626 1030.15 348.992 1019.19 341.834L1016.2 340.002C1005.71 333.599 995.208 327.317 985.846 321.722L917.021 280.563L917.324 263.223L993.626 308.855C1001.54 313.585 1009.31 318.253 1016.99 322.967L1019.92 324.771V324.771L1022.83 326.582C1024.14 327.396 1025.46 328.206 1026.77 329.027C1037.38 336.293 1047.93 344.225 1058.08 352.575C1067.66 361.082 1077.48 370.328 1087.29 380.055L1096.49 389.192C1102.97 395.609 1109.57 402.115 1116.17 408.432L1117.2 409.409V409.409L1118.22 410.377C1126.86 418.567 1135.18 425.89 1143.49 432.625L1144.74 433.631C1145.28 434.068 1145.83 434.513 1146.37 434.946C1156.41 442.928 1166.85 450.246 1177.5 456.675L1179.03 457.59C1190.15 464.235 1202.09 470.309 1214.5 475.643C1226.14 480.643 1238.51 485.253 1252.32 489.737C1255.07 490.628 1257.83 491.51 1260.6 492.386C1262.08 492.853 1263.56 493.314 1265.05 493.776C1266.28 494.163 1267.52 494.553 1268.75 494.937C1272.16 495.993 1275.57 497.04 1278.95 498.076L1291.26 501.839C1304.58 505.917 1317.48 510.257 1329.57 514.729C1341.8 519.802 1353.88 525.454 1365.44 531.51C1375.44 537.245 1385.22 543.059 1395.84 549.405L1474.25 596.3ZM917.367 260.919L917.67 243.589L1002.3 294.202C1012.93 300.558 1024.24 307.367 1035.38 314.581C1045.82 322.101 1056.14 330.389 1066.03 339.187C1075.07 347.958 1084.31 357.469 1094.28 368.265L1098.85 373.205C1106.22 381.175 1114.25 389.784 1122.33 398.055C1132.41 408.39 1142.1 417.376 1151.96 425.526C1162.2 433.989 1172.95 441.619 1183.92 448.209L1184.43 448.515V448.515C1195.56 455.167 1207.57 461.128 1220.12 466.237C1231.99 471.065 1244.55 475.366 1258.54 479.38C1271.93 483.227 1285.96 486.86 1298.33 490.065L1301.5 490.891C1314.6 494.334 1326.45 497.765 1337.6 501.341C1350.15 505.994 1362.44 511.286 1374.09 517.05C1385.53 523.433 1396.73 530.092 1408.14 536.923L1491.48 586.763L1476.29 595.182L1392.89 545.309C1383.93 539.969 1375.87 535.2 1367.57 530.423L1366.4 529.754C1354.79 523.669 1342.66 517.991 1330.29 512.865C1318.13 508.367 1305.2 504.014 1291.84 499.924L1279.15 496.047C1275.93 495.06 1272.69 494.063 1269.44 493.055C1263.92 491.343 1258.39 489.603 1252.94 487.832C1239.18 483.367 1226.87 478.778 1215.29 473.802C1202.95 468.505 1191.1 462.472 1180.05 455.871C1169.03 449.296 1158.09 441.704 1147.62 433.382L1146.73 432.673V432.673L1145.85 431.958C1137.4 425.16 1128.96 417.765 1120.17 409.47L1118.43 407.823C1118.14 407.547 1117.85 407.269 1117.56 406.989C1110.94 400.656 1104.32 394.133 1097.83 387.698L1088.7 378.637C1078.86 368.88 1069.01 359.611 1059.38 351.058C1049.15 342.643 1038.56 334.677 1027.87 327.358L1026.52 326.52C1017.21 320.691 1007.79 315.005 998.197 309.259L986.362 302.18L917.367 260.919ZM918.358 204.285L1019.61 264.839V264.839L1023.34 267.091C1032.52 272.663 1042.77 279.015 1052.52 285.808C1062.95 294.21 1072.72 303.389 1081.57 313.09L1082.58 314.207C1089.69 322.067 1097.09 330.885 1106.2 342.354L1111.56 349.121C1118.94 358.432 1126.74 368.118 1134.63 377.323C1144.2 388.491 1153.53 398.106 1163.14 406.713C1163.66 407.181 1164.2 407.634 1164.72 408.096C1165.47 408.751 1166.21 409.412 1166.96 410.056L1167.25 410.295C1175.67 417.469 1184.5 423.894 1193.58 429.441L1195.02 430.313V430.313L1195.48 430.585C1203.76 435.515 1212.6 439.938 1221.87 443.78C1224.99 445.074 1228.16 446.302 1231.37 447.462C1243.51 451.854 1256.46 455.528 1270.96 458.698L1272.06 458.935V458.935L1276.02 459.779V459.779L1277.72 460.132C1278.93 460.383 1280.14 460.633 1281.36 460.88L1284.61 461.529V461.529L1287.29 462.055V462.055L1290.47 462.67V462.67L1293.72 463.287V463.287L1296.72 463.85V463.85L1301.7 464.767V464.767L1306.76 465.686V465.686L1315.55 467.261C1330.76 470.017 1342.51 472.512 1353.31 475.271C1366.09 478.535 1378.9 482.916 1391.37 488.296L1393.28 489.296C1394.07 489.714 1394.87 490.127 1395.66 490.549L1396.76 491.148V491.148C1397.83 491.721 1398.9 492.295 1399.96 492.877L1401.05 493.481C1402.11 494.063 1403.16 494.645 1404.22 495.235L1405.83 496.145V496.145C1406.7 496.638 1407.58 497.131 1408.46 497.631L1411.5 499.379V499.379L1413.58 500.581V500.581C1417.59 502.91 1421.6 505.279 1425.64 507.672L1525.94 567.656L1510.74 576.079L1417.93 520.574C1407.07 514.071 1395.47 507.191 1383.66 500.814C1371.81 495.302 1359.23 490.355 1346.2 486.094C1333.91 482.782 1320.69 479.614 1305.8 476.412L1300.88 475.35C1289.3 472.845 1277.19 470.152 1265.22 467.138C1251.12 463.586 1238.43 459.624 1226.45 455.02C1213.88 450.191 1201.9 444.394 1190.84 437.789C1179.83 431.234 1169.04 423.41 1158.84 414.644C1149.15 406.308 1139.69 397.062 1129.94 386.379C1121.62 377.276 1113.59 367.963 1105.99 359.048L1100.74 352.879C1091.69 342.289 1083.39 332.974 1075.39 324.442C1065.62 315.046 1055.47 306.333 1045.15 298.509C1034.85 291.622 1024.47 285.272 1012.08 277.858L918.056 221.626L918.358 204.285ZM1037.28 235.709C1048.53 242.576 1059.45 249.41 1069.44 257.528C1079.21 265.472 1088.41 274.866 1097.55 286.246L1098.52 287.456C1105.46 296.168 1112.62 305.92 1121.45 318.669L1126.05 325.34C1133.77 336.48 1140.57 346.089 1147.63 355.446C1156.74 367.512 1165.68 377.779 1174.97 386.835C1176.95 388.768 1178.96 390.626 1181 392.443C1181.49 392.881 1181.98 393.332 1182.48 393.764L1183.4 394.548V394.548C1189.51 399.805 1195.85 404.558 1202.37 408.744C1203.39 409.395 1204.41 410.019 1205.43 410.644L1206.6 411.371V411.371C1217.71 418.009 1230.04 423.477 1243.27 427.625C1255.67 431.522 1269.02 434.546 1284.07 436.869C1295.87 438.693 1308.07 440.187 1319.23 441.467L1329.2 442.592C1345.44 444.442 1357.92 446.26 1369.42 448.45C1383.89 451.202 1396.62 454.983 1408.34 460.011C1420.88 465.394 1432.7 472.326 1443.13 478.439L1560.38 548.561V548.561L1545.18 556.983L1435.41 491.327L1431.82 489.218C1421.16 482.958 1411.26 477.289 1400.78 472.059C1388.12 466.974 1374.98 462.923 1361.72 460.02L1360.2 459.69C1349.53 457.395 1337.9 455.361 1323.08 453.2L1314.26 451.932C1302.84 450.28 1290.16 448.353 1277.73 446.044C1263.07 443.319 1250.02 439.991 1237.82 435.868C1224.93 431.511 1212.81 425.969 1201.8 419.391L1201.55 419.24C1200.96 418.882 1200.37 418.507 1199.78 418.142L1198.35 417.261C1198.11 417.113 1197.87 416.964 1197.63 416.812C1191.62 412.972 1185.73 408.702 1180.03 404.045L1177.79 402.199V402.199C1177.41 401.884 1177.05 401.555 1176.67 401.235C1174.51 399.387 1172.38 397.494 1170.28 395.533C1160.9 386.779 1151.83 376.91 1142.55 365.36C1134.3 355.096 1126.17 344.229 1118.55 333.885L1116.92 331.677C1106.74 317.83 1098.74 307.595 1091.01 298.489C1082.31 288.26 1072.69 278.638 1062.33 269.837C1051.43 261.981 1040.17 255.046 1029.57 248.611L918.736 182.327L919.041 164.993L1037.28 235.709ZM918.703 70.2136L918.484 82.9275L918.467 82.9172L918.083 104.868L918.088 104.871L917.404 144.158L917.408 144.16L917.105 161.501L917.101 161.499L916.717 183.449L916.719 183.45L916.375 203.099L916.378 203.101L916.075 220.454L916.067 220.449L915.684 242.401L915.691 242.406L915.388 259.736L915.385 259.734L915 281.684L995.946 330.097C1003.13 334.405 1010.66 338.95 1018.12 343.523C1029.01 350.64 1039.76 358.244 1050.04 366.103C1059.86 374.139 1069.72 382.622 1080.18 392.031L1082.87 394.508C1091.69 402.597 1100.8 410.962 1109.87 419.062C1120.58 428.639 1130.64 436.998 1140.62 444.62C1150.52 452.183 1160.74 459.189 1171.05 465.47L1173.46 466.921V466.921C1184.57 473.562 1196.43 479.744 1208.71 485.293C1220.15 490.464 1232.33 495.385 1245.95 500.335C1254.26 503.352 1262.71 506.33 1271.05 509.243L1284.06 513.784C1297.47 518.623 1309.71 523.356 1321.44 528.241C1333.35 533.686 1345.24 539.666 1356.76 546.001L1359.74 547.756C1367.21 552.151 1374.69 556.609 1382.6 561.333L1459.02 607.034L1476.24 597.487L1476.25 597.492L1495.49 586.824L1495.49 586.823L1512.71 577.279L1512.71 577.277L1529.95 567.718L1529.95 567.717L1547.17 558.173L1547.17 558.172L1562.36 549.747L1562.38 549.757L1581.63 539.087L1581.61 539.076L1596.82 530.652L1596.83 530.659L1616.08 519.98L1616.07 519.973L1631.28 511.538L1631.3 511.547L1642.7 505.228L1642.86 496.279L1642.82 496.259L1643.13 478.933L1643.15 478.945L1643.53 456.994L1643.51 456.983L1643.82 439.636L1643.83 439.646L1644.22 417.694L1644.21 417.691L1644.51 400.357L1644.52 400.359L1644.9 378.407L1644.89 378.401L1645.23 358.765L1515.2 280.994V280.994C1512.32 279.408 1509.44 277.809 1506.56 276.206L1496.91 270.815C1492.42 268.315 1487.86 265.794 1483.31 263.329L1480.58 261.858C1469.32 255.831 1457.34 249.889 1444.96 244.197L1441.35 242.554C1432.59 238.591 1423.08 234.45 1411.32 229.478L1404.94 226.786C1395.34 222.719 1383.5 217.608 1371.85 212.141C1359.23 206.228 1347.8 200.185 1336.91 193.668C1326.47 187.454 1316.23 180.582 1305.59 172.735L1304.14 171.659C1294.15 164.233 1284.39 156.511 1276.44 150.118L1268.5 143.721C1260.68 137.435 1251.23 129.935 1241.65 122.671C1230.91 114.527 1220.11 106.83 1209.55 99.7943C1204.39 96.3618 1199.14 92.9647 1193.96 89.6392L1188.81 86.3388C1184.76 83.7457 1180.72 81.1547 1176.66 78.5219L1045.37 0L1010.92 19.0962L1010.92 19.0952L957.212 48.8656L957.218 48.8692L942.01 57.2978L942.005 57.2947L918.703 70.2136Z" fill="url(#paint1_linear_0_32)"/>
<defs>
<linearGradient id="paint0_linear_0_32" x1="-3.76635" y1="1112.2" x2="284.352" y2="1389.92" gradientUnits="userSpaceOnUse">
<stop stop-color="#5D5DFF" stop-opacity="0.01"/>
<stop offset="1" stop-color="#5D5DFF" stop-opacity="0.32"/>
</linearGradient>
<linearGradient id="paint1_linear_0_32" x1="918.861" y1="330.138" x2="1226.15" y2="679.031" gradientUnits="userSpaceOnUse">
<stop stop-color="#5D5DFF" stop-opacity="0.01"/>
<stop offset="0.538482" stop-color="#5D5DFF" stop-opacity="0.32"/>
<stop offset="1" stop-color="#5D5DFF" stop-opacity="0.01"/>
</linearGradient>
</defs>
</svg>
